<svg width="833" height="501" viewBox="0 0 833 501" fill="none" xmlns="http://www.w3.org/2000/svg">
<g clip-path="url(#clip0_1_3)">
<path d="M43.4196 499.238C43.364 498.993 37.9797 474.44 48.9758 454.048C59.9719 433.656 83.444 424.663 83.6799 424.574L84.7526 424.172L85.0061 425.29C85.0617 425.535 90.446 450.088 79.4499 470.48C68.4543 490.872 44.9817 499.865 44.7458 499.954L43.6726 500.356L43.4196 499.238ZM83.2814 426.9C78.5798 428.923 60.0236 437.774 50.7365 454.997C41.4484 472.222 44.2507 492.591 45.1442 497.628C49.844 495.61 68.3928 486.772 77.6892 469.531C86.9768 452.307 84.1755 431.94 83.2814 426.9Z" fill="#F1F1F1"/>
<path d="M71.0468 463.327C51.2862 475.216 43.6758 498.83 43.6758 498.83C43.6758 498.83 68.1035 503.169 87.8641 491.28C107.625 479.391 115.235 455.777 115.235 455.777C115.235 455.777 90.8073 451.439 71.0468 463.327Z" fill="#F1F1F1"/>
<path d="M370.296 272.743C370.597 271.187 370.553 269.585 370.168 268.048C369.783 266.511 369.066 265.077 368.067 263.848C367.068 262.618 365.811 261.622 364.386 260.931C362.96 260.24 361.4 259.869 359.816 259.846L350.665 236.833L335.324 238.983L348.704 271.3C348.841 273.964 349.95 276.485 351.822 278.386C353.693 280.286 356.197 281.434 358.859 281.612C361.52 281.79 364.155 280.985 366.263 279.35C368.37 277.716 369.805 275.365 370.296 272.743Z" fill="#9F616A"/>
<path d="M342.033 264.657L337.279 253.322L307.658 196.937L309.268 92.6045L309.578 92.5635C328.532 90.0592 341.356 177.392 341.893 181.111L360.608 245.119L365.063 259.228L342.033 264.657Z" fill="#6C63FF"/>
<path d="M296.518 484.658L310.92 484.657L317.771 429.106L296.515 429.107L296.518 484.658Z" fill="#9F616A"/>
<path d="M292.844 479.956L321.207 479.955H321.208C326.002 479.955 330.599 481.859 333.989 485.249C337.379 488.639 339.283 493.236 339.283 498.03V498.617L292.845 498.619L292.844 479.956Z" fill="#2F2E41"/>
<path d="M164.095 462.715L175.912 470.949L213.294 429.291L195.854 417.138L164.095 462.715Z" fill="#9F616A"/>
<path d="M163.77 456.757L187.04 472.973L187.041 472.973C190.974 475.714 193.657 479.905 194.5 484.624C195.343 489.343 194.277 494.204 191.536 498.137L191.201 498.619L153.1 472.069L163.77 456.757Z" fill="#2F2E41"/>
<path d="M288.603 471.6L287.98 367.39L278.918 301.864L262.023 359.488L261.991 359.536L200.766 448.421L176.942 436.35L177.073 436.04C178.529 432.577 212.835 351.247 222.056 351.247C222.861 351.303 223.668 351.163 224.407 350.838C225.146 350.513 225.795 350.014 226.299 349.382C229.005 345.768 226.801 338.1 226.778 338.023C224.139 327.077 230.776 323.349 232.098 322.727L235.653 249.33L236.022 249.355L332.411 256.116L328.367 347.882L319.669 468.114L319.37 468.147L288.603 471.6Z" fill="#2F2E41"/>
<path d="M333.884 272.38L333.467 272.346L229.803 263.99L230.059 229.69L235.132 140.132L235.161 140.069L255.824 95.2108L270.471 88.5782L291.841 87.4536L291.894 87.4667L311.396 92.2986L331.684 237.937L333.884 272.38Z" fill="#6C63FF"/>
<path d="M295.19 75.9572C308.417 68.7268 313.278 52.1431 306.047 38.9165C298.817 25.6898 282.233 20.8288 269.007 28.0592C255.78 35.2896 250.919 51.8733 258.149 65.0999C265.38 78.3266 281.963 83.1876 295.19 75.9572Z" fill="#9F616A"/>
<path d="M254.649 58.8595V48.2253C254.649 48.2253 246.073 38.1249 255.507 35.5806C255.507 35.5806 258.08 10.1378 280.377 22.0111C280.377 22.0111 311.251 16.9225 307.82 34.7325C307.82 34.7325 315.539 30.0829 312.966 41.9563L307.99 61.0821C307.99 61.0821 310.393 48.4481 302.675 46.7519L298.387 44.2076C298.387 44.2076 286.38 56.0809 268.371 41.6633C268.371 41.6633 260.652 39.8211 261.51 47.454C262.368 55.0869 254.649 58.8595 254.649 58.8595Z" fill="#2F2E41"/>
<path d="M279.257 246.766C279.274 245.181 278.944 243.613 278.289 242.17C277.634 240.727 276.671 239.445 275.468 238.415C274.264 237.385 272.849 236.631 271.323 236.206C269.796 235.782 268.195 235.697 266.633 235.959L253.501 214.962L238.795 219.83L257.756 249.221C258.369 251.817 259.913 254.098 262.095 255.632C264.278 257.166 266.947 257.846 269.597 257.543C272.247 257.241 274.695 255.976 276.475 253.99C278.255 252.004 279.245 249.433 279.257 246.766Z" fill="#9F616A"/>
<path d="M245.339 240.147L221.582 191.912L221.603 191.795C221.699 191.261 231.262 138.161 238.576 118.644C245.936 99.0021 256.011 95.0585 256.437 94.9003L256.649 94.8212L265.683 103.486L253.169 187.013L266.658 227.297L245.339 240.147Z" fill="#6C63FF"/>
<path d="M832.206 0H786.206V46H832.206V0Z" fill="#F1F1F1"/>
<path d="M472.206 179H426.206V225H472.206V179Z" fill="#F1F1F1"/>
<path d="M452.025 204.843H815.7V20.7339H452.025V204.843Z" fill="white"/>
<path d="M818.7 207.843H449.025V17.7338H818.7V207.843ZM455.025 201.843H812.7V23.7338H455.025V201.843Z" fill="#E5E5E5"/>
<path d="M775.484 85.3159H495.678V94.595H775.484V85.3159Z" fill="#E5E5E5"/>
<path d="M775.484 107.819H495.678V117.098H775.484V107.819Z" fill="#E5E5E5"/>
<path d="M775.484 141.045H723.484V149.098H775.484V141.045Z" fill="#6C63FF"/>
<path d="M382 500.316H1.00003C0.734814 500.316 0.480459 500.211 0.292923 500.023C0.105387 499.835 3.05176e-05 499.581 3.05176e-05 499.316C3.05176e-05 499.051 0.105387 498.796 0.292923 498.609C0.480459 498.421 0.734814 498.316 1.00003 498.316H382C382.265 498.316 382.52 498.421 382.707 498.609C382.895 498.796 383 499.051 383 499.316C383 499.581 382.895 499.835 382.707 500.023C382.52 500.211 382.265 500.316 382 500.316Z" fill="#CBCBCB"/>
</g>
<defs>
<clipPath id="clip0_1_3">
<rect width="832.206" height="500.356" fill="white"/>
</clipPath>
</defs>
</svg>
